<svg width="1200" height="997" viewBox="0 0 1200 997" fill="none" xmlns="http://www.w3.org/2000/svg">
<circle r="50" transform="matrix(0.00106672 0.999999 0.999999 -0.00106672 498.053 136.053)" fill="#E61237"/>
<path d="M498.098 186.107L497.971 989" stroke="#E61237" stroke-width="16"/>
<circle cx="251.704" cy="286.704" r="50" transform="rotate(90.8127 251.704 286.704)" fill="#798F8F"/>
<path d="M444.027 996.879V421.379" stroke="#798F8F" stroke-width="17"/>
<path d="M448 428.5L265 307" stroke="#798F8F" stroke-width="17"/>
<circle r="50" transform="matrix(0.0141835 0.999899 0.999899 -0.0141835 744.296 286.704)" fill="#E61237"/>
<path d="M551.973 996.879V421.379" stroke="#E61237" stroke-width="17"/>
<path d="M548 428.5L731 307" stroke="#E61237" stroke-width="17"/>
<path d="M770.49 100.699C798.102 100.307 820.168 77.6064 819.776 49.9949C819.384 22.3834 796.683 0.31744 769.072 0.709106C741.461 1.10077 719.395 23.8018 719.786 51.4132C720.178 79.0247 742.879 101.091 770.49 100.699Z" fill="#E61237"/>
<path d="M617.986 316.716V165.082" stroke="#E61237" stroke-width="17"/>
<path d="M613 172.209L746 72.7092" stroke="#E61237" stroke-width="17"/>
<path d="M624.735 890.149V585.935" stroke="#E61237" stroke-width="17"/>
<path d="M627 593.209L760 493.709" stroke="#E61237" stroke-width="17"/>
<path d="M362.265 890.44V586.225" stroke="#798F8F" stroke-width="17"/>
<path d="M360 593.5L227 494" stroke="#798F8F" stroke-width="17"/>
<path d="M225.995 100.699C198.384 100.307 176.318 77.6064 176.709 49.9949C177.101 22.3834 199.802 0.31744 227.413 0.709106C255.025 1.10077 277.091 23.8018 276.699 51.4132C276.307 79.0247 253.606 101.091 225.995 100.699Z" fill="#798F8F"/>
<path d="M378.499 316.716V165.082" stroke="#798F8F" stroke-width="17"/>
<path d="M383.485 172.209L250.485 72.7092" stroke="#798F8F" stroke-width="17"/>
<path d="M1200 236C1200 263.614 1177.61 286 1150 286C1122.39 286 1100 263.614 1100 236C1100 208.386 1122.39 186 1150 186C1177.61 186 1200 208.386 1200 236ZM1108.92 236C1108.92 258.689 1127.31 277.083 1150 277.083C1172.69 277.083 1191.08 258.689 1191.08 236C1191.08 213.311 1172.69 194.917 1150 194.917C1127.31 194.917 1108.92 213.311 1108.92 236Z" fill="#E61237"/>
<path d="M100 779C100 806.614 77.6142 829 50 829C22.3858 829 0 806.614 0 779C0 751.386 22.3858 729 50 729C77.6142 729 100 751.386 100 779ZM8.9171 779C8.9171 801.689 27.3105 820.083 50 820.083C72.6895 820.083 91.0829 801.689 91.0829 779C91.0829 756.311 72.6895 737.917 50 737.917C27.3105 737.917 8.9171 756.311 8.9171 779Z" fill="#798F8F"/>
</svg>
