<svg width="2464" height="1111" viewBox="0 0 2464 1111" fill="none" xmlns="http://www.w3.org/2000/svg">
<g id="icon">
<g id="txt">
<g id="txt_right">
<path id="Vector 4" d="M2444.5 1035C2444.5 1035 2223.36 1035 2057 1035L2444.5 1035ZM2444.5 1035L2444.5 960L2077 960L2077 415L2174 415L2174 895.5" stroke="#798F8F" stroke-width="38"/>
<path id="Ellipse 43" d="M1897 805C1897 844.397 1889.24 883.407 1874.16 919.805C1859.09 956.203 1836.99 989.275 1809.13 1017.13C1781.27 1044.99 1748.2 1067.09 1711.8 1082.16C1675.41 1097.24 1636.4 1105 1597 1105L1597 1077.53C1632.79 1077.53 1668.23 1070.48 1701.29 1056.79C1734.36 1043.09 1764.4 1023.02 1789.71 997.709C1815.02 972.402 1835.09 942.359 1848.79 909.294C1862.48 876.228 1869.53 840.79 1869.53 805L1897 805Z" fill="#798F8F"/>
<path id="Vector 9" d="M1883 415L1883 810" stroke="#798F8F" stroke-width="28"/>
<path id="Vector 10" d="M1897 424L1786 424L1786 827.5" stroke="#798F8F" stroke-width="28"/>
<path id="Ellipse 42" d="M1800 827C1800 864.586 1789.41 901.411 1769.44 933.254C1749.47 965.097 1720.94 990.668 1687.1 1007.04L1675.1 982.239C1704.28 968.124 1728.88 946.075 1746.1 918.618C1763.32 891.162 1772.45 859.409 1772.45 827L1800 827Z" fill="#798F8F"/>
<path id="right_ring" d="M1673.01 620.815C1714.43 621.022 1748.18 587.612 1748.39 546.191C1748.59 504.771 1715.18 471.024 1673.76 470.817C1632.34 470.609 1598.6 504.019 1598.39 545.44C1598.18 586.861 1631.59 620.607 1673.01 620.815ZM1673.7 484.192C1707.73 484.363 1735.18 512.091 1735.01 546.124C1734.84 580.158 1707.11 607.61 1673.08 607.439C1639.05 607.269 1611.59 579.541 1611.76 545.507C1611.93 511.473 1639.66 484.022 1673.7 484.192Z" fill="#798F8F"/>
</g>
<g id="txt_left">
<path id="Vector 2" d="M1241.5 1035C1241.5 1035 1020.36 1035 854 1035L1241.5 1035ZM1241.5 1035L1241.5 960L874 960L874 415L971 415L971 895.5" stroke="#E61237" stroke-width="38"/>
<path id="Vector 5" d="M1346 415L1346 810" stroke="#E61237" stroke-width="28"/>
<path id="Vector 7" d="M1332 424L1443 424L1443 827.5" stroke="#E61237" stroke-width="28"/>
<path id="Ellipse 39" d="M1429 827C1429 874.996 1446.26 921.391 1477.63 957.717C1509 994.043 1552.38 1017.88 1599.87 1024.87L1603.88 997.613C1562.94 991.585 1525.53 971.034 1498.48 939.712C1471.43 908.39 1456.55 868.385 1456.55 827L1429 827Z" fill="#E61237"/>
<path id="Ellipse 40" d="M1332 805C1332 860.437 1347.36 914.79 1376.38 962.026C1405.39 1009.26 1446.93 1047.54 1496.38 1072.6L1508.8 1048.1C1463.88 1025.33 1426.14 990.56 1399.78 947.649C1373.42 904.738 1359.47 855.361 1359.47 805L1332 805Z" fill="#E61237"/>
<path id="Vector 8" d="M1597 997L1595 1105" stroke="#E61237" stroke-width="28"/>
<path id="left_ring" d="M1585 623.374C1626.42 623.581 1660.17 590.171 1660.37 548.751C1660.58 507.33 1627.17 473.583 1585.75 473.376C1544.33 473.168 1510.58 506.578 1510.38 547.999C1510.17 589.42 1543.58 623.166 1585 623.374ZM1585.68 486.751C1619.72 486.922 1647.17 514.65 1647 548.684C1646.83 582.717 1619.1 610.169 1585.07 609.998C1551.03 609.828 1523.58 582.1 1523.75 548.066C1523.92 514.032 1551.65 486.581 1585.68 486.751Z" fill="#E61237"/>
</g>
</g>
<g id="circuit">
<g id="circuit_right">
<g id="Group 67">
<circle id="Ellipse 44" r="50" transform="matrix(0.00106672 0.999999 0.999999 -0.00106672 498.053 136.053)" fill="#E61237"/>
<path id="Vector 11" d="M498.098 186.107L497.971 989" stroke="#E61237" stroke-width="16"/>
</g>
<g id="Group 71">
<circle id="Ellipse 44_2" r="50" transform="matrix(0.0141835 0.999899 0.999899 -0.0141835 744.295 286.704)" fill="#E61237"/>
<path id="Vector 12" d="M551.972 996.879V421.379" stroke="#E61237" stroke-width="17"/>
<path id="Vector 14" d="M548 428.5L731 307" stroke="#E61237" stroke-width="17"/>
</g>
<g id="Group 72">
<path id="Ellipse 44_3" d="M770.49 100.699C798.101 100.308 820.167 77.6065 819.776 49.995C819.384 22.3836 796.683 0.317562 769.072 0.709229C741.46 1.10089 719.394 23.8019 719.786 51.4134C720.177 79.0248 742.878 101.091 770.49 100.699Z" fill="#E61237"/>
<path id="Vector 12_2" d="M617.986 316.716V165.082" stroke="#E61237" stroke-width="17"/>
<path id="Vector 14_2" d="M613 172.209L746 72.7094" stroke="#E61237" stroke-width="17"/>
</g>
<g id="Group 74">
<path id="Vector 12_3" d="M624.734 890.149V585.935" stroke="#E61237" stroke-width="17"/>
<path id="Vector 14_3" d="M627 593.209L760 493.709" stroke="#E61237" stroke-width="17"/>
</g>
</g>
<g id="circuit_left">
<g id="Group 70">
<circle id="Ellipse 44_4" cx="251.704" cy="286.704" r="50" transform="rotate(90.8127 251.704 286.704)" fill="#798F8F"/>
<path id="Vector 12_4" d="M444.027 996.879V421.379" stroke="#798F8F" stroke-width="17"/>
<path id="Vector 14_4" d="M448 428.5L265 307" stroke="#798F8F" stroke-width="17"/>
</g>
<g id="Group 76">
<path id="Vector 12_5" d="M362.265 890.44V586.225" stroke="#798F8F" stroke-width="17"/>
<path id="Vector 14_5" d="M360 593.5L227 494" stroke="#798F8F" stroke-width="17"/>
</g>
<g id="Group 73">
<path id="Ellipse 44_5" d="M225.994 100.699C198.383 100.308 176.317 77.6065 176.709 49.995C177.1 22.3836 199.801 0.317562 227.413 0.709229C255.024 1.10089 277.09 23.8019 276.699 51.4134C276.307 79.0248 253.606 101.091 225.994 100.699Z" fill="#798F8F"/>
<path id="Vector 12_6" d="M378.499 316.716V165.082" stroke="#798F8F" stroke-width="17"/>
<path id="Vector 14_6" d="M383.485 172.209L250.485 72.7094" stroke="#798F8F" stroke-width="17"/>
</g>
</g>
<path id="circuit_blob_right" d="M1200 236C1200 263.614 1177.61 286 1150 286C1122.39 286 1100 263.614 1100 236C1100 208.386 1122.39 186 1150 186C1177.61 186 1200 208.386 1200 236ZM1108.92 236C1108.92 258.69 1127.31 277.083 1150 277.083C1172.69 277.083 1191.08 258.69 1191.08 236C1191.08 213.311 1172.69 194.917 1150 194.917C1127.31 194.917 1108.92 213.311 1108.92 236Z" fill="#E61237"/>
<path id="circuit_blob_left" d="M99.9995 779C99.9995 806.614 77.6137 829 49.9995 829C22.3853 829 -0.000488281 806.614 -0.000488281 779C-0.000488281 751.386 22.3853 729 49.9995 729C77.6137 729 99.9995 751.386 99.9995 779ZM8.91661 779C8.91661 801.69 27.3101 820.083 49.9995 820.083C72.689 820.083 91.0824 801.69 91.0824 779C91.0824 756.311 72.689 737.917 49.9995 737.917C27.3101 737.917 8.91661 756.311 8.91661 779Z" fill="#798F8F"/>
</g>
</g>
</svg>
